<svg width="248" height="31" viewBox="0 0 248 31" fill="none" xmlns="http://www.w3.org/2000/svg">
<path d="M59.2427 22.2C58.4827 22.2 57.7561 22.1067 57.0627 21.92C56.3827 21.72 55.7761 21.4267 55.2427 21.04C54.7094 20.6533 54.2827 20.1733 53.9627 19.6C53.6561 19.0267 53.4894 18.36 53.4627 17.6C53.4627 17.48 53.5027 17.38 53.5827 17.3C53.6627 17.2067 53.7694 17.16 53.9027 17.16H56.6027C56.7894 17.16 56.9294 17.2067 57.0227 17.3C57.1294 17.3933 57.2161 17.5333 57.2827 17.72C57.3494 18.0933 57.4761 18.4 57.6627 18.64C57.8494 18.8667 58.0827 19.04 58.3627 19.16C58.6561 19.2667 58.9827 19.32 59.3427 19.32C60.0094 19.32 60.5227 19.1067 60.8827 18.68C61.2427 18.24 61.4227 17.6 61.4227 16.76V10.98H54.9427C54.8094 10.98 54.6894 10.9333 54.5827 10.84C54.4894 10.7467 54.4427 10.6267 54.4427 10.48V8.5C54.4427 8.35333 54.4894 8.23333 54.5827 8.14C54.6894 8.04667 54.8094 8 54.9427 8H64.6227C64.7694 8 64.8894 8.04667 64.9827 8.14C65.0894 8.23333 65.1427 8.35333 65.1427 8.5V16.86C65.1427 18.02 64.8894 19 64.3827 19.8C63.8761 20.5867 63.1827 21.1867 62.3027 21.6C61.4227 22 60.4027 22.2 59.2427 22.2ZM70.8621 22.2C70.1421 22.2 69.4954 22.0667 68.9221 21.8C68.3621 21.52 67.9154 21.1467 67.5821 20.68C67.2488 20.2133 67.0821 19.6867 67.0821 19.1C67.0821 18.1533 67.4688 17.4067 68.2421 16.86C69.0154 16.3 70.0421 15.92 71.3221 15.72L73.8221 15.34V15.06C73.8221 14.58 73.7221 14.2133 73.5221 13.96C73.3221 13.7067 72.9554 13.58 72.4221 13.58C72.0488 13.58 71.7421 13.6533 71.5021 13.8C71.2754 13.9467 71.0954 14.1467 70.9621 14.4C70.8421 14.5733 70.6754 14.66 70.4621 14.66H68.2221C68.0754 14.66 67.9621 14.62 67.8821 14.54C67.8021 14.4467 67.7688 14.34 67.7821 14.22C67.7821 13.98 67.8688 13.7067 68.0421 13.4C68.2288 13.08 68.5088 12.7667 68.8821 12.46C69.2554 12.1533 69.7354 11.9 70.3221 11.7C70.9088 11.5 71.6154 11.4 72.4421 11.4C73.3088 11.4 74.0488 11.5 74.6621 11.7C75.2754 11.9 75.7688 12.18 76.1421 12.54C76.5288 12.9 76.8154 13.3267 77.0021 13.82C77.1888 14.3 77.2821 14.8333 77.2821 15.42V21.5C77.2821 21.6467 77.2288 21.7667 77.1221 21.86C77.0288 21.9533 76.9154 22 76.7821 22H74.4621C74.3154 22 74.1954 21.9533 74.1021 21.86C74.0088 21.7667 73.9621 21.6467 73.9621 21.5V20.8C73.7888 21.0533 73.5554 21.2867 73.2621 21.5C72.9688 21.7133 72.6221 21.88 72.2221 22C71.8354 22.1333 71.3821 22.2 70.8621 22.2ZM71.8021 19.92C72.1888 19.92 72.5354 19.84 72.8421 19.68C73.1621 19.5067 73.4088 19.2467 73.5821 18.9C73.7688 18.54 73.8621 18.0933 73.8621 17.56V17.28L72.1621 17.58C71.5354 17.6867 71.0754 17.8533 70.7821 18.08C70.5021 18.2933 70.3621 18.5467 70.3621 18.84C70.3621 19.0667 70.4288 19.26 70.5621 19.42C70.6954 19.58 70.8688 19.7067 71.0821 19.8C71.2954 19.88 71.5354 19.92 71.8021 19.92ZM84.519 22.2C83.5323 22.2 82.659 22.02 81.899 21.66C81.139 21.3 80.5323 20.78 80.079 20.1C79.639 19.4067 79.399 18.58 79.359 17.62C79.3456 17.4067 79.339 17.14 79.339 16.82C79.339 16.4867 79.3456 16.2133 79.359 16C79.399 15.0267 79.639 14.2 80.079 13.52C80.519 12.8267 81.119 12.3 81.879 11.94C82.6523 11.58 83.5323 11.4 84.519 11.4C85.439 11.4 86.2256 11.5333 86.879 11.8C87.5323 12.0533 88.0656 12.3733 88.479 12.76C88.8923 13.1467 89.199 13.5467 89.399 13.96C89.6123 14.36 89.7256 14.7133 89.739 15.02C89.7523 15.1533 89.7056 15.2733 89.599 15.38C89.4923 15.4733 89.3723 15.52 89.239 15.52H86.699C86.5523 15.52 86.439 15.4867 86.359 15.42C86.279 15.3533 86.2056 15.2533 86.139 15.12C85.979 14.7067 85.7723 14.4133 85.519 14.24C85.279 14.0667 84.9656 13.98 84.579 13.98C84.0456 13.98 83.6323 14.1533 83.339 14.5C83.059 14.8467 82.9056 15.38 82.879 16.1C82.8656 16.6333 82.8656 17.1067 82.879 17.52C82.9056 18.2533 83.059 18.7867 83.339 19.12C83.6323 19.4533 84.0456 19.62 84.579 19.62C84.9923 19.62 85.319 19.5333 85.559 19.36C85.799 19.1867 85.9923 18.8933 86.139 18.48C86.2056 18.3467 86.279 18.2467 86.359 18.18C86.439 18.1133 86.5523 18.08 86.699 18.08H89.239C89.3723 18.08 89.4923 18.1333 89.599 18.24C89.7056 18.3333 89.7523 18.4467 89.739 18.58C89.7256 18.8067 89.659 19.0733 89.539 19.38C89.419 19.6733 89.2323 19.9867 88.979 20.32C88.7256 20.6533 88.3923 20.9667 87.979 21.26C87.579 21.54 87.0923 21.7667 86.519 21.94C85.9456 22.1133 85.279 22.2 84.519 22.2ZM92.2359 22C92.0892 22 91.9692 21.9533 91.8759 21.86C91.7825 21.7667 91.7359 21.6467 91.7359 21.5V8.3C91.7359 8.15333 91.7825 8.03333 91.8759 7.94C91.9692 7.84667 92.0892 7.8 92.2359 7.8H94.5559C94.6892 7.8 94.8025 7.84667 94.8959 7.94C95.0025 8.03333 95.0559 8.15333 95.0559 8.3V15L97.8359 11.94C97.9159 11.8467 98.0025 11.7667 98.0959 11.7C98.1892 11.6333 98.3225 11.6 98.4959 11.6H101.176C101.296 11.6 101.396 11.6467 101.476 11.74C101.569 11.82 101.616 11.92 101.616 12.04C101.616 12.0933 101.603 12.1533 101.576 12.22C101.549 12.2867 101.509 12.34 101.456 12.38L97.8559 16.26L101.956 21.24C102.063 21.3467 102.116 21.4533 102.116 21.56C102.116 21.68 102.069 21.7867 101.976 21.88C101.896 21.96 101.789 22 101.656 22H98.9159C98.7159 22 98.5692 21.9667 98.4759 21.9C98.3825 21.82 98.2959 21.74 98.2159 21.66L95.0559 17.86V21.5C95.0559 21.6467 95.0025 21.7667 94.8959 21.86C94.8025 21.9533 94.6892 22 94.5559 22H92.2359ZM113.995 22.2C112.729 22.2 111.635 21.9933 110.715 21.58C109.809 21.1533 109.102 20.54 108.595 19.74C108.102 18.9267 107.829 17.94 107.775 16.78C107.762 16.2067 107.755 15.6 107.755 14.96C107.755 14.3067 107.762 13.6867 107.775 13.1C107.829 11.9667 108.109 11.0067 108.615 10.22C109.122 9.43333 109.835 8.83333 110.755 8.42C111.675 8.00667 112.755 7.8 113.995 7.8C114.995 7.8 115.882 7.92667 116.655 8.18C117.429 8.42 118.075 8.74667 118.595 9.16C119.129 9.57333 119.529 10.0267 119.795 10.52C120.075 11.0133 120.222 11.5 120.235 11.98C120.249 12.1 120.209 12.2 120.115 12.28C120.035 12.36 119.935 12.4 119.815 12.4H116.895C116.749 12.4 116.635 12.38 116.555 12.34C116.489 12.2867 116.429 12.2133 116.375 12.12C116.282 11.92 116.142 11.7133 115.955 11.5C115.782 11.2733 115.535 11.08 115.215 10.92C114.909 10.76 114.502 10.68 113.995 10.68C113.235 10.68 112.635 10.88 112.195 11.28C111.769 11.68 111.535 12.32 111.495 13.2C111.455 14.3467 111.455 15.5067 111.495 16.68C111.535 17.6133 111.782 18.2867 112.235 18.7C112.689 19.1133 113.289 19.32 114.035 19.32C114.542 19.32 114.989 19.2333 115.375 19.06C115.775 18.8867 116.089 18.62 116.315 18.26C116.542 17.8867 116.655 17.4133 116.655 16.84V16.46H114.775C114.629 16.46 114.502 16.4133 114.395 16.32C114.302 16.2133 114.255 16.0867 114.255 15.94V14.46C114.255 14.3133 114.302 14.1933 114.395 14.1C114.502 13.9933 114.629 13.94 114.775 13.94H119.815C119.962 13.94 120.082 13.9933 120.175 14.1C120.269 14.1933 120.315 14.3133 120.315 14.46V16.74C120.315 17.8867 120.055 18.8667 119.535 19.68C119.015 20.4933 118.275 21.12 117.315 21.56C116.369 21.9867 115.262 22.2 113.995 22.2ZM125.71 22.2C124.99 22.2 124.343 22.0667 123.77 21.8C123.21 21.52 122.763 21.1467 122.43 20.68C122.096 20.2133 121.93 19.6867 121.93 19.1C121.93 18.1533 122.316 17.4067 123.09 16.86C123.863 16.3 124.89 15.92 126.17 15.72L128.67 15.34V15.06C128.67 14.58 128.57 14.2133 128.37 13.96C128.17 13.7067 127.803 13.58 127.27 13.58C126.896 13.58 126.59 13.6533 126.35 13.8C126.123 13.9467 125.943 14.1467 125.81 14.4C125.69 14.5733 125.523 14.66 125.31 14.66H123.07C122.923 14.66 122.81 14.62 122.73 14.54C122.65 14.4467 122.616 14.34 122.63 14.22C122.63 13.98 122.716 13.7067 122.89 13.4C123.076 13.08 123.356 12.7667 123.73 12.46C124.103 12.1533 124.583 11.9 125.17 11.7C125.756 11.5 126.463 11.4 127.29 11.4C128.156 11.4 128.896 11.5 129.51 11.7C130.123 11.9 130.616 12.18 130.99 12.54C131.376 12.9 131.663 13.3267 131.85 13.82C132.036 14.3 132.13 14.8333 132.13 15.42V21.5C132.13 21.6467 132.076 21.7667 131.97 21.86C131.876 21.9533 131.763 22 131.63 22H129.31C129.163 22 129.043 21.9533 128.95 21.86C128.856 21.7667 128.81 21.6467 128.81 21.5V20.8C128.636 21.0533 128.403 21.2867 128.11 21.5C127.816 21.7133 127.47 21.88 127.07 22C126.683 22.1333 126.23 22.2 125.71 22.2ZM126.65 19.92C127.036 19.92 127.383 19.84 127.69 19.68C128.01 19.5067 128.256 19.2467 128.43 18.9C128.616 18.54 128.71 18.0933 128.71 17.56V17.28L127.01 17.58C126.383 17.6867 125.923 17.8533 125.63 18.08C125.35 18.2933 125.21 18.5467 125.21 18.84C125.21 19.0667 125.276 19.26 125.41 19.42C125.543 19.58 125.716 19.7067 125.93 19.8C126.143 19.88 126.383 19.92 126.65 19.92ZM135.087 22C134.94 22 134.82 21.9533 134.727 21.86C134.633 21.7667 134.587 21.6467 134.587 21.5V8.3C134.587 8.15333 134.633 8.03333 134.727 7.94C134.82 7.84667 134.94 7.8 135.087 7.8H137.447C137.593 7.8 137.713 7.84667 137.807 7.94C137.9 8.03333 137.947 8.15333 137.947 8.3V21.5C137.947 21.6467 137.9 21.7667 137.807 21.86C137.713 21.9533 137.593 22 137.447 22H135.087ZM141.009 22C140.863 22 140.743 21.9533 140.649 21.86C140.556 21.7667 140.509 21.6467 140.509 21.5V8.3C140.509 8.15333 140.556 8.03333 140.649 7.94C140.743 7.84667 140.863 7.8 141.009 7.8H143.369C143.516 7.8 143.636 7.84667 143.729 7.94C143.823 8.03333 143.869 8.15333 143.869 8.3V21.5C143.869 21.6467 143.823 21.7667 143.729 21.86C143.636 21.9533 143.516 22 143.369 22H141.009ZM147.616 22C147.469 22 147.349 21.9533 147.256 21.86C147.162 21.7667 147.116 21.6467 147.116 21.5V12.1C147.116 11.9533 147.162 11.8333 147.256 11.74C147.349 11.6467 147.469 11.6 147.616 11.6H149.976C150.109 11.6 150.222 11.6467 150.316 11.74C150.422 11.8333 150.476 11.9533 150.476 12.1V21.5C150.476 21.6467 150.422 21.7667 150.316 21.86C150.222 21.9533 150.109 22 149.976 22H147.616ZM147.596 10.1C147.449 10.1 147.329 10.0533 147.236 9.96C147.142 9.86667 147.096 9.74667 147.096 9.6V7.82C147.096 7.67333 147.142 7.55333 147.236 7.46C147.329 7.35333 147.449 7.3 147.596 7.3H149.976C150.122 7.3 150.242 7.35333 150.336 7.46C150.442 7.55333 150.496 7.67333 150.496 7.82V9.6C150.496 9.74667 150.442 9.86667 150.336 9.96C150.242 10.0533 150.122 10.1 149.976 10.1H147.596ZM154.699 22C154.565 22 154.445 21.9533 154.339 21.86C154.245 21.7667 154.199 21.6467 154.199 21.5V14.22H152.679C152.532 14.22 152.412 14.1733 152.319 14.08C152.225 13.9867 152.179 13.8667 152.179 13.72V12.1C152.179 11.9533 152.225 11.8333 152.319 11.74C152.412 11.6467 152.532 11.6 152.679 11.6H154.199V10.96C154.199 10.0533 154.372 9.32667 154.719 8.78C155.079 8.22 155.585 7.82 156.239 7.58C156.892 7.32667 157.672 7.2 158.579 7.2H160.139C160.272 7.2 160.385 7.24667 160.479 7.34C160.585 7.43333 160.639 7.55333 160.639 7.7V9.32C160.639 9.46667 160.585 9.58667 160.479 9.68C160.385 9.77333 160.272 9.82 160.139 9.82H158.739C158.285 9.82 157.965 9.92667 157.779 10.14C157.605 10.3533 157.519 10.66 157.519 11.06V11.6H159.939C160.072 11.6 160.185 11.6467 160.279 11.74C160.385 11.8333 160.439 11.9533 160.439 12.1V13.72C160.439 13.8667 160.385 13.9867 160.279 14.08C160.185 14.1733 160.072 14.22 159.939 14.22H157.519V21.5C157.519 21.6467 157.472 21.7667 157.379 21.86C157.285 21.9533 157.165 22 157.019 22H154.699ZM165.03 22.2C164.31 22.2 163.663 22.0667 163.09 21.8C162.53 21.52 162.083 21.1467 161.75 20.68C161.417 20.2133 161.25 19.6867 161.25 19.1C161.25 18.1533 161.637 17.4067 162.41 16.86C163.183 16.3 164.21 15.92 165.49 15.72L167.99 15.34V15.06C167.99 14.58 167.89 14.2133 167.69 13.96C167.49 13.7067 167.123 13.58 166.59 13.58C166.217 13.58 165.91 13.6533 165.67 13.8C165.443 13.9467 165.263 14.1467 165.13 14.4C165.01 14.5733 164.843 14.66 164.63 14.66H162.39C162.243 14.66 162.13 14.62 162.05 14.54C161.97 14.4467 161.937 14.34 161.95 14.22C161.95 13.98 162.037 13.7067 162.21 13.4C162.397 13.08 162.677 12.7667 163.05 12.46C163.423 12.1533 163.903 11.9 164.49 11.7C165.077 11.5 165.783 11.4 166.61 11.4C167.477 11.4 168.217 11.5 168.83 11.7C169.443 11.9 169.937 12.18 170.31 12.54C170.697 12.9 170.983 13.3267 171.17 13.82C171.357 14.3 171.45 14.8333 171.45 15.42V21.5C171.45 21.6467 171.397 21.7667 171.29 21.86C171.197 21.9533 171.083 22 170.95 22H168.63C168.483 22 168.363 21.9533 168.27 21.86C168.177 21.7667 168.13 21.6467 168.13 21.5V20.8C167.957 21.0533 167.723 21.2867 167.43 21.5C167.137 21.7133 166.79 21.88 166.39 22C166.003 22.1333 165.55 22.2 165.03 22.2ZM165.97 19.92C166.357 19.92 166.703 19.84 167.01 19.68C167.33 19.5067 167.577 19.2467 167.75 18.9C167.937 18.54 168.03 18.0933 168.03 17.56V17.28L166.33 17.58C165.703 17.6867 165.243 17.8533 164.95 18.08C164.67 18.2933 164.53 18.5467 164.53 18.84C164.53 19.0667 164.597 19.26 164.73 19.42C164.863 19.58 165.037 19.7067 165.25 19.8C165.463 19.88 165.703 19.92 165.97 19.92ZM174.407 22C174.26 22 174.14 21.9533 174.047 21.86C173.954 21.7667 173.907 21.6467 173.907 21.5V12.1C173.907 11.9533 173.954 11.8333 174.047 11.74C174.14 11.6467 174.26 11.6 174.407 11.6H176.707C176.854 11.6 176.974 11.6467 177.067 11.74C177.16 11.8333 177.207 11.9533 177.207 12.1V12.86C177.554 12.4467 178.007 12.1 178.567 11.82C179.127 11.54 179.787 11.4 180.547 11.4C181.32 11.4 182 11.5733 182.587 11.92C183.187 12.2667 183.654 12.78 183.987 13.46C184.334 14.1267 184.507 14.9467 184.507 15.92V21.5C184.507 21.6467 184.454 21.7667 184.347 21.86C184.254 21.9533 184.14 22 184.007 22H181.487C181.354 22 181.234 21.9533 181.127 21.86C181.034 21.7667 180.987 21.6467 180.987 21.5V16.04C180.987 15.4133 180.834 14.9333 180.527 14.6C180.234 14.2533 179.794 14.08 179.207 14.08C178.66 14.08 178.22 14.2533 177.887 14.6C177.567 14.9333 177.407 15.4133 177.407 16.04V21.5C177.407 21.6467 177.354 21.7667 177.247 21.86C177.154 21.9533 177.04 22 176.907 22H174.407ZM192.161 22C191.308 22 190.568 21.8667 189.941 21.6C189.328 21.32 188.855 20.8933 188.521 20.32C188.188 19.7333 188.021 18.98 188.021 18.06V14.22H186.461C186.315 14.22 186.188 14.1733 186.081 14.08C185.988 13.9867 185.941 13.8667 185.941 13.72V12.1C185.941 11.9533 185.988 11.8333 186.081 11.74C186.188 11.6467 186.315 11.6 186.461 11.6H188.021V8.3C188.021 8.15333 188.068 8.03333 188.161 7.94C188.268 7.84667 188.388 7.8 188.521 7.8H190.841C190.988 7.8 191.108 7.84667 191.201 7.94C191.295 8.03333 191.341 8.15333 191.341 8.3V11.6H193.841C193.988 11.6 194.108 11.6467 194.201 11.74C194.295 11.8333 194.341 11.9533 194.341 12.1V13.72C194.341 13.8667 194.295 13.9867 194.201 14.08C194.108 14.1733 193.988 14.22 193.841 14.22H191.341V17.78C191.341 18.2333 191.428 18.5933 191.601 18.86C191.775 19.1267 192.068 19.26 192.481 19.26H194.021C194.168 19.26 194.288 19.3067 194.381 19.4C194.475 19.4933 194.521 19.6133 194.521 19.76V21.5C194.521 21.6467 194.475 21.7667 194.381 21.86C194.288 21.9533 194.168 22 194.021 22H192.161Z" fill="white"/>
<path fill-rule="evenodd" clip-rule="evenodd" d="M38.6604 20L30.0001 5L21.3398 20H38.6604ZM32.4747 16.4285L30.0003 12.1428L27.5259 16.4285H32.4747Z" fill="white"/>
</svg>
