<svg version="1.1" id="Layer_1" xmlns="http://www.w3.org/2000/svg" xmlns:xlink="http://www.w3.org/1999/xlink" x="0px" y="0px"
	 width="100%" viewBox="0 0 352 352" enable-background="new 0 0 352 352" xml:space="preserve">
<path fill="#000000" opacity="1.000000" stroke="none" 
	d="
M301.571533,0.999997 
	C303.173096,3.725059 304.292694,6.475124 305.548798,9.161356 
	C305.976593,10.076188 306.030884,10.710506 305.109833,11.202808 
	C303.047119,12.305370 303.493225,14.496511 304.187622,15.597044 
	C307.911072,21.498470 305.218689,28.262234 307.059113,34.392174 
	C308.090820,37.828411 308.450409,41.461361 309.355927,44.942432 
	C309.909271,47.069599 310.826050,49.133854 313.815582,48.493103 
	C316.852905,47.842106 316.685852,45.808228 316.184418,43.502937 
	C315.960236,42.472095 316.244141,41.542725 318.025513,40.452255 
	C319.593231,49.247757 326.824219,49.249622 333.687134,50.202732 
	C332.175049,52.081924 330.706451,50.820610 329.431824,51.077728 
	C328.142212,51.337879 326.775208,51.198296 325.444397,51.274010 
	C323.077118,51.408703 321.218048,52.684933 321.934875,55.025539 
	C324.198395,62.416271 321.587311,69.510368 320.992706,76.693535 
	C320.080566,87.713226 318.787872,98.708748 317.356628,109.675369 
	C316.503998,116.208656 315.095764,122.670441 313.894165,129.156372 
	C313.641693,130.519058 312.995148,131.642471 310.859375,131.892654 
	C311.183350,127.729820 311.492340,123.759430 311.801331,119.789047 
	C311.541351,119.742493 311.281403,119.695946 311.021423,119.649399 
	C310.146179,123.536209 309.025482,127.387398 308.454926,131.318436 
	C307.658691,136.804916 314.313110,136.511719 316.019135,140.393509 
	C314.599762,142.410461 311.452637,142.621002 311.133667,145.429642 
	C308.794617,145.096420 310.815399,142.660889 308.690033,142.299179 
	C307.368073,142.677887 307.030487,144.651993 307.639069,145.274277 
	C313.305725,151.068863 307.751007,157.968491 309.666107,164.098434 
	C310.153351,165.657974 310.029938,167.787613 308.202393,168.476822 
	C304.659851,169.812836 304.395844,173.026672 303.999207,175.779114 
	C302.622955,185.328308 299.953674,194.608276 297.890076,203.982376 
	C295.875519,213.133636 291.941681,221.930450 288.222778,230.614090 
	C285.817505,236.230255 283.564850,241.878174 281.506866,247.618912 
	C280.985443,249.073380 281.148407,250.464600 282.581573,251.035767 
	C286.361450,252.542175 285.723022,255.305161 285.413208,258.470001 
	C284.615570,266.618347 286.591888,274.619690 287.223358,282.698120 
	C287.946991,291.955719 288.346313,301.238678 288.884033,310.510773 
	C289.001221,312.531342 288.492798,314.433289 286.226074,314.585602 
	C283.908936,314.741272 283.798889,312.668182 283.801025,310.998322 
	C283.816162,299.219299 281.227631,287.590179 281.805908,275.780518 
	C282.072693,270.332092 279.283661,265.239197 280.567963,259.625916 
	C276.247833,258.992065 275.133606,261.719147 273.881439,264.194458 
	C265.435577,280.890808 255.062790,296.072784 241.381577,309.100830 
	C235.119141,315.064331 227.646088,320.236847 223.954269,328.623260 
	C223.716980,329.162323 223.068878,329.692444 222.496521,329.886627 
	C212.227158,333.370392 204.656784,341.229858 195.498932,346.514130 
	C191.672226,348.722229 187.371307,349.729462 183.274490,349.651855 
	C180.141937,349.592499 178.263458,350.490479 176.184570,352.720337 
	C173.299988,353.000000 170.599976,353.000000 167.449982,353.000000 
	C164.412415,349.995453 160.141266,350.083740 157.209656,347.006561 
	C153.465134,343.076111 148.909332,340.063904 145.076172,335.863556 
	C139.885910,330.176117 134.428345,324.323273 127.877571,319.764069 
	C124.157288,317.174835 121.206871,313.408997 118.144516,309.964325 
	C114.957169,306.379089 112.125046,302.458496 107.489258,300.492493 
	C105.472633,302.235168 106.299683,303.847137 107.133186,305.516602 
	C109.343102,309.942871 111.612175,314.344971 113.633430,318.857117 
	C114.329720,320.411499 115.439995,322.286438 113.918617,323.966095 
	C113.510246,324.416931 112.331581,324.485229 111.626106,324.292175 
	C109.585503,323.733734 109.041618,322.111542 108.715508,320.130585 
	C107.620766,313.480804 105.452248,307.283905 100.403381,302.385651 
	C104.042999,295.738190 103.571564,293.203308 97.547043,287.449219 
	C94.921471,284.941498 94.403473,281.309540 92.710533,278.299500 
	C84.408638,263.538940 76.890823,248.268417 67.629700,234.139160 
	C60.801693,223.722000 57.424831,212.194809 53.472408,200.854782 
	C50.644081,192.739929 47.501137,183.127045 50.021370,175.407227 
	C52.985298,166.328323 49.393642,157.215088 53.114777,148.623550 
	C54.432972,145.580017 52.057220,143.972610 48.531734,144.921005 
	C44.965946,145.880264 41.363586,146.703568 37.773327,147.587372 
	C37.653286,146.846512 37.573929,146.549850 37.607471,146.536469 
	C44.467140,143.802444 43.508511,138.339371 42.880772,132.601608 
	C41.259571,117.783104 43.458885,102.996521 43.655796,88.191765 
	C43.791374,77.998085 44.536720,67.900253 45.659412,57.789783 
	C45.993019,54.785431 46.689823,51.132618 42.082573,50.175129 
	C49.031269,34.099472 53.029243,17.175993 60.830452,1.317661 
	C63.041668,1.000000 65.083336,1.000000 67.562500,1.000000 
	C67.835777,8.657468 63.795620,15.273272 61.666195,22.334751 
	C56.575222,39.217178 56.695705,56.480930 55.223434,73.659874 
	C54.356171,83.779457 53.746540,93.894852 54.991531,104.030815 
	C55.350410,106.952606 55.260620,109.987869 57.487534,112.785103 
	C60.901779,109.740089 64.401527,110.573082 68.138863,111.926224 
	C72.247169,113.413651 76.654060,111.831619 79.899910,110.104446 
	C84.463745,107.675964 88.257263,109.580055 92.350128,110.001251 
	C93.834206,110.153969 94.142662,111.798714 94.122330,113.211441 
	C94.093796,115.193581 92.592636,115.706802 91.092812,115.905975 
	C85.458214,116.654251 79.724899,116.701340 74.165962,115.951584 
	C68.525635,115.190849 63.862518,118.249367 58.592163,118.686920 
	C57.035435,118.816170 56.491020,120.561218 56.813660,122.293976 
	C57.299244,124.901878 57.615868,127.540848 58.074383,130.154327 
	C58.317307,131.538986 57.952927,133.470108 60.089462,133.619644 
	C62.431026,133.783524 62.448769,131.772217 62.911816,130.205322 
	C63.090584,129.600372 63.500629,129.063782 64.158501,127.837936 
	C69.642212,131.315796 74.104210,124.850861 80.386452,126.216110 
	C76.730492,129.808121 71.660019,128.872849 68.476334,131.951050 
	C69.745750,133.158997 71.168663,132.730576 72.346481,132.567581 
	C93.891289,129.586014 115.789261,130.723938 137.262894,126.986244 
	C140.363632,126.446526 143.387115,125.609848 146.611679,125.767929 
	C148.675186,125.869087 150.002106,126.150093 151.991211,127.540237 
	C155.447159,129.955505 160.232529,128.163376 164.186508,126.706535 
	C167.121597,125.625114 169.582123,123.375229 172.785309,126.300232 
	C174.124237,127.522896 175.371628,125.897888 176.614273,125.030907 
	C179.307175,123.152153 182.072525,122.738823 184.556274,126.168839 
	C186.826660,122.433823 190.488449,122.188179 193.909210,122.943893 
	C200.290985,124.353760 206.790375,123.957336 213.185074,124.395058 
	C224.469147,125.167458 235.675766,126.805672 247.030243,127.005928 
	C258.632446,127.210564 270.016541,129.976624 281.399384,132.078995 
	C286.969696,133.107819 292.606903,133.287827 298.141754,134.410324 
	C301.096100,135.009476 302.822571,133.159271 303.564301,130.438507 
	C304.694824,126.291771 305.248535,122.140099 305.354584,117.758095 
	C305.573303,108.718834 307.326630,99.702316 307.331696,90.675819 
	C307.338379,78.785652 307.680847,66.869820 304.964386,55.032230 
	C302.665405,45.013897 301.879028,34.655636 300.209473,24.482899 
	C299.258636,18.689184 297.959686,12.947336 296.645508,7.221608 
	C296.233398,5.425954 295.665253,3.702135 295.969177,1.418669 
	C297.714355,1.000000 299.428711,1.000000 301.571533,0.999997 
M181.174713,131.409088 
	C168.870316,131.293274 156.620087,132.348679 144.357239,133.122086 
	C132.421524,133.874847 120.459244,133.148926 108.505539,133.967758 
	C103.250397,134.327744 98.121712,135.866409 92.689285,135.114792 
	C85.465294,134.115295 78.161499,134.795197 70.885757,135.319672 
	C65.500526,135.707855 67.107552,139.596344 66.808716,142.615601 
	C66.577652,144.950150 67.312294,147.071426 69.894539,146.543747 
	C74.490189,145.604630 79.692513,147.253571 83.987923,143.081955 
	C82.055489,141.643082 82.475212,139.895172 83.996544,138.236816 
	C85.882446,136.181030 87.188225,138.185745 88.763527,138.859650 
	C94.031441,141.113220 99.739426,139.871658 105.154419,140.109711 
	C108.003151,140.234940 109.565384,140.439072 111.213821,142.289154 
	C110.108055,144.587845 108.073494,144.646652 106.374901,144.819809 
	C95.293945,145.949463 84.277115,147.500870 73.268318,149.189423 
	C67.338760,150.098892 65.622154,151.560165 66.453133,157.444168 
	C67.778534,166.829147 66.251900,176.245010 67.187172,185.671585 
	C67.850197,192.354218 68.507446,199.085648 68.818192,205.807755 
	C69.306091,216.362305 74.260284,225.785507 76.099380,236.082108 
	C77.622078,244.607315 81.862053,253.337524 91.301025,257.247375 
	C91.859497,257.478729 92.596436,258.120483 92.640137,258.624207 
	C93.119057,264.144287 96.648247,268.192810 99.140808,272.779633 
	C103.328606,280.486053 106.857712,288.498016 112.884598,295.149750 
	C119.100433,302.009979 125.985802,308.173523 131.673889,315.649414 
	C137.048615,322.713440 144.106064,328.793121 153.944092,329.533356 
	C161.207397,330.079865 168.479538,331.222717 175.728149,331.083130 
	C186.441513,330.876801 197.287949,330.561340 206.227386,325.721161 
	C211.494675,330.156860 215.700806,325.681519 220.010147,325.313751 
	C219.575562,321.967438 220.722900,319.172211 223.051743,317.011688 
	C232.790253,307.976929 240.859299,297.411530 249.343567,287.287994 
	C252.758926,283.212738 256.263702,279.067749 259.504272,274.778595 
	C263.588562,269.372711 268.573059,264.365051 271.066833,258.132263 
	C274.637054,249.208969 277.914032,240.197861 282.613129,231.781570 
	C283.462341,230.260635 283.965912,228.334946 283.256836,226.990540 
	C281.446350,223.558014 283.007324,221.725998 286.604370,220.022034 
	C283.363159,218.773392 283.523621,217.128845 284.266510,214.662155 
	C285.471436,210.661774 288.309204,207.641724 289.539948,203.501938 
	C291.585693,196.620697 294.877686,190.053223 296.435944,182.966751 
	C297.645691,177.465057 298.997223,171.880478 299.184631,166.295792 
	C299.442322,158.614441 297.631165,150.818985 302.100769,143.632477 
	C303.066467,142.079758 301.789612,140.402344 300.190338,139.556122 
	C299.175995,139.019394 298.005707,138.748154 296.879974,138.455566 
	C284.460632,135.227753 271.376068,136.697601 259.005127,133.107681 
	C258.853973,133.063812 258.674072,133.129456 258.508209,133.124390 
	C245.989655,132.741486 233.462463,134.309586 220.934113,132.267273 
	C208.064575,130.169357 195.035004,131.208344 181.174713,131.409088 
M158.999786,334.218811 
	C158.416718,334.172577 157.833649,334.126312 155.983093,333.979553 
	C160.471970,337.565674 164.096268,340.700073 168.746216,340.200623 
	C176.381729,339.380463 184.006134,340.037903 191.577957,339.566833 
	C197.987228,339.168152 204.879684,338.623596 210.630402,331.981201 
	C192.936646,332.630554 176.414078,337.314972 158.999786,334.218811 
M312.929047,95.096283 
	C312.109070,97.629250 310.275330,100.168266 313.025574,102.937332 
	C313.299408,102.328255 313.572968,101.931755 313.658752,101.498108 
	C316.400238,87.639648 316.288666,73.494858 317.806213,59.511776 
	C317.978485,57.924332 317.405762,56.239983 317.085266,54.619003 
	C316.641327,52.373722 315.419891,51.006557 312.925201,51.386284 
	C310.321533,51.782597 310.447418,53.826408 310.689331,55.614323 
	C311.176056,59.211098 312.530151,62.796219 312.411041,66.348747 
	C312.097260,75.709236 314.259094,84.985107 312.929047,95.096283 
M50.197422,141.373154 
	C52.837925,133.956406 52.183769,126.388412 51.337681,118.787163 
	C51.186741,117.431145 50.908630,116.394440 49.486328,116.406853 
	C48.087883,116.419052 47.596519,117.468376 47.580654,118.815048 
	C47.509106,124.888481 47.330841,130.961716 47.350388,137.034500 
	C47.355988,138.773056 47.335472,140.802917 50.197422,141.373154 
M58.863369,159.759201 
	C58.577843,158.760132 59.271133,157.324615 56.732185,156.683990 
	C57.672512,166.244263 54.581230,175.716354 58.929810,184.777664 
	C58.929810,176.673645 58.929810,168.569611 58.863369,159.759201 
M180.483200,346.920959 
	C181.644302,346.433167 183.072968,347.276947 184.523972,345.884430 
	C178.053024,343.280304 171.818130,344.108124 165.578766,344.943817 
	C170.297104,345.977814 174.412598,351.392273 180.483200,346.920959 
M61.898853,203.761765 
	C62.209408,201.389374 61.412998,199.190918 60.890507,196.936142 
	C60.383553,194.748444 60.066483,192.516739 59.666023,190.304367 
	C58.728054,199.460938 59.181370,202.523712 61.892490,207.313675 
	C61.892490,206.066284 61.892490,205.266022 61.898853,203.761765 
M49.615520,113.640144 
	C51.020508,108.961906 49.220703,104.412209 48.997772,99.783791 
	C48.558067,104.481171 47.366047,109.164787 49.615520,113.640144 
z"/>
<path fill="#000000" opacity="1.000000" stroke="none" 
	d="
M353.000000,53.625000 
	C349.102814,53.107693 344.854767,53.840794 340.283173,51.528900 
	C344.756561,48.626797 348.526855,50.763924 352.588226,50.916599 
	C353.000000,51.750000 353.000000,52.500000 353.000000,53.625000 
z"/>
<path fill="#000000" opacity="1.000000" stroke="none" 
	d="
M168.919479,103.445053 
	C169.570175,106.747238 170.199646,109.588257 168.013962,112.333481 
	C166.002563,114.859818 168.381378,116.906364 170.229019,119.940742 
	C149.298309,119.350922 129.664169,114.776245 109.632034,113.517532 
	C122.619431,110.668755 135.832291,111.410362 149.837234,109.507591 
	C147.529892,113.825401 144.104858,111.065781 142.191605,112.900757 
	C142.372101,114.416031 143.650864,114.568665 144.739288,114.716690 
	C149.667328,115.386894 154.593491,116.156288 159.547470,116.525604 
	C164.142960,116.868202 164.634384,115.074989 163.394791,110.606621 
	C161.978195,105.500214 161.390991,100.064827 160.729874,94.821266 
	C159.412109,84.369637 156.923431,74.102852 156.332092,63.512032 
	C155.941879,56.523083 156.148422,49.577599 156.624329,42.694443 
	C157.343842,32.287914 159.094376,21.953413 160.373337,11.584179 
	C160.619766,9.586287 161.030090,7.672133 162.401016,5.585191 
	C163.758514,7.977823 163.972504,10.300714 164.039352,12.732452 
	C164.427811,26.864529 161.930817,40.790188 161.081604,54.833004 
	C160.776245,59.882603 161.024567,65.047478 163.769455,69.183594 
	C168.069748,75.663498 166.930878,82.376076 166.159317,89.225853 
	C165.607452,94.125320 165.408569,98.938354 168.919479,103.445053 
z"/>
<path fill="#000000" opacity="1.000000" stroke="none" 
	d="
M198.035370,119.528976 
	C195.239349,119.594215 192.844711,119.594215 190.450089,119.594215 
	C201.763184,116.378822 213.221848,115.628326 224.827499,116.616508 
	C216.151672,118.676636 207.286987,119.005661 198.035370,119.528976 
z"/>
<path fill="#000000" opacity="1.000000" stroke="none" 
	d="
M269.730774,112.913612 
	C271.258118,112.945023 272.464722,112.624496 274.085693,114.093529 
	C265.359985,117.384659 256.776031,117.301468 248.234558,117.550240 
	C248.139801,116.935669 248.045044,116.321098 247.950287,115.706528 
	C255.079605,114.783707 262.208923,113.860886 269.730774,112.913612 
z"/>
<path fill="#000000" opacity="1.000000" stroke="none" 
	d="
M176.904877,118.398033 
	C179.599808,118.136559 182.126907,117.336220 185.312912,119.033302 
	C181.767105,120.352386 179.146683,121.073486 176.904877,118.398033 
z"/>
<path fill="#000000" opacity="1.000000" stroke="none" 
	d="
M46.598473,158.416077 
	C46.374344,155.115936 44.441338,152.278702 45.256718,149.089996 
	C47.624470,148.513702 48.349682,149.781677 48.645153,151.580276 
	C49.362404,155.946304 49.006832,157.299606 46.598473,158.416077 
z"/>
<path fill="#000000" opacity="1.000000" stroke="none" 
	d="
M211.655685,257.867554 
	C209.496613,258.154205 207.224640,257.987335 207.082504,260.469116 
	C206.944260,262.882751 209.224380,262.455414 210.735352,262.880768 
	C215.110046,264.112244 219.469879,265.396454 224.507248,266.854370 
	C220.319550,268.508667 210.889297,266.835754 201.436737,263.449585 
	C194.140884,260.835999 186.820114,258.055054 178.581284,260.382141 
	C179.822189,262.806580 182.906662,260.752747 184.274338,263.378906 
	C167.255737,263.378906 150.500137,263.378906 133.526764,263.378906 
	C135.755325,257.879608 135.755325,257.879608 161.572571,251.305023 
	C162.739578,254.615326 165.238907,254.645554 168.490707,254.297287 
	C172.194443,253.900604 175.948883,254.309189 179.749390,255.417542 
	C185.474930,257.087311 191.357620,257.382599 197.303329,254.938309 
	C199.629364,253.982086 202.581131,256.211670 205.314285,256.793579 
	C209.313980,257.645142 212.208694,253.752945 216.326248,254.801071 
	C215.755051,257.636993 213.556503,257.228119 211.655685,257.867554 
z"/>
<path fill="#000000" opacity="1.000000" stroke="none" 
	d="
M185.909805,230.336029 
	C179.572693,230.631500 173.797485,233.257660 167.637985,230.264282 
	C163.597168,228.300552 159.403656,231.838303 155.121246,231.971909 
	C153.348480,232.027191 151.689987,233.294357 149.393570,232.548141 
	C149.542709,229.808289 148.166611,227.728622 145.339966,226.206161 
	C150.644745,224.575653 155.871094,224.261017 161.380310,225.039459 
	C162.179825,223.155746 159.335403,223.132736 159.808777,220.296829 
	C172.604980,225.629410 186.016617,221.580612 199.196594,222.408051 
	C199.302979,223.014328 199.409378,223.620605 199.515762,224.226883 
	C195.113678,226.227127 190.711594,228.227386 185.909805,230.336029 
z"/>
<path fill="#000000" opacity="1.000000" stroke="none" 
	d="
M158.713379,280.693359 
	C156.288391,279.473175 153.618179,278.857666 153.573730,275.331116 
	C157.400330,273.367188 161.322189,272.057404 165.975601,273.457855 
	C165.056427,278.681976 169.038712,278.552521 172.107376,278.696960 
	C175.858261,278.873505 179.644043,278.308807 183.128220,278.083221 
	C185.266006,277.058746 183.016769,275.482391 184.126053,274.299316 
	C184.433167,274.240234 185.030380,273.918823 185.344574,274.096863 
	C188.505859,275.888153 189.705032,280.324890 187.672928,283.951996 
	C186.134232,286.698395 183.752670,284.949493 181.553284,284.600372 
	C174.274811,283.445129 167.141922,285.122681 159.992767,286.154755 
	C158.596527,286.356323 157.304565,287.670837 155.644958,286.205109 
	C155.705246,283.721191 158.222565,283.668304 159.610229,282.536316 
	C161.160828,281.271423 159.977112,281.096405 158.713379,280.693359 
z"/>
<path fill="#000000" opacity="1.000000" stroke="none" 
	d="
M125.901154,265.316772 
	C126.954147,264.976562 127.712296,264.762451 129.712738,264.197418 
	C127.101273,268.350800 124.155357,269.068695 120.119522,269.514648 
	C121.538719,266.601593 123.792282,266.329224 125.901154,265.316772 
z"/>
</svg>